<mxfile host="Electron" modified="2023-04-16T03:26:03.261Z" agent="Mozilla/5.0 (Macintosh; Intel Mac OS X 10_15_7) AppleWebKit/537.36 (KHTML, like Gecko) draw.io/21.1.2 Chrome/106.0.5249.199 Electron/21.4.3 Safari/537.36" etag="pnmUfLltQ3iqXxAOZ1pm" version="21.1.2" type="device">
  <diagram name="Page-1" id="ODiKtK3Bn3Vrpn2LKAS7">
    <mxGraphModel dx="1195" dy="712" grid="1" gridSize="10" guides="1" tooltips="1" connect="1" arrows="1" fold="1" page="1" pageScale="1" pageWidth="1100" pageHeight="850" math="0" shadow="0">
      <root>
        <mxCell id="0" />
        <mxCell id="1" parent="0" />
        <mxCell id="kD2B1rjUraq4vyGs7eOG-198" value="&lt;font style=&quot;font-size: 20px;&quot;&gt;Job 1 (Ray Cluster 1)&lt;br&gt;&lt;br&gt;&lt;br&gt;&lt;br&gt;&lt;br&gt;&lt;br&gt;&lt;br&gt;&lt;br&gt;&lt;/font&gt;" style="rounded=1;whiteSpace=wrap;html=1;arcSize=7;" parent="1" vertex="1">
          <mxGeometry x="150" y="120" width="560" height="210" as="geometry" />
        </mxCell>
        <mxCell id="kD2B1rjUraq4vyGs7eOG-6" value="" style="group" parent="1" vertex="1" connectable="0">
          <mxGeometry x="160" y="159" width="140" height="160" as="geometry" />
        </mxCell>
        <mxCell id="kD2B1rjUraq4vyGs7eOG-1" value="&lt;font style=&quot;font-size: 20px;&quot;&gt;Head Pod&lt;br&gt;&lt;br&gt;&lt;br&gt;&lt;br&gt;&lt;br&gt;&lt;br&gt;&lt;/font&gt;" style="rounded=1;whiteSpace=wrap;html=1;arcSize=5;" parent="kD2B1rjUraq4vyGs7eOG-6" vertex="1">
          <mxGeometry width="140" height="160" as="geometry" />
        </mxCell>
        <mxCell id="kD2B1rjUraq4vyGs7eOG-4" value="&lt;font style=&quot;font-size: 20px;&quot;&gt;Router&lt;/font&gt;" style="whiteSpace=wrap;html=1;rounded=1;" parent="kD2B1rjUraq4vyGs7eOG-6" vertex="1">
          <mxGeometry x="7.36842105263158" y="40" width="125.26315789473685" height="46.666666666666664" as="geometry" />
        </mxCell>
        <mxCell id="kD2B1rjUraq4vyGs7eOG-5" value="&lt;font style=&quot;font-size: 20px;&quot;&gt;Controller&lt;/font&gt;" style="whiteSpace=wrap;html=1;rounded=1;" parent="kD2B1rjUraq4vyGs7eOG-6" vertex="1">
          <mxGeometry x="7.36842105263158" y="108" width="125.26315789473685" height="40" as="geometry" />
        </mxCell>
        <mxCell id="kD2B1rjUraq4vyGs7eOG-13" value="" style="group;strokeWidth=2;strokeColor=none;rounded=1;" parent="1" vertex="1" connectable="0">
          <mxGeometry x="375" y="160" width="320" height="40" as="geometry" />
        </mxCell>
        <mxCell id="kD2B1rjUraq4vyGs7eOG-2" value="&lt;font style=&quot;font-size: 20px;&quot;&gt;Worker Pod&amp;nbsp;&amp;nbsp;&lt;/font&gt;" style="whiteSpace=wrap;html=1;rounded=1;align=right;" parent="kD2B1rjUraq4vyGs7eOG-13" vertex="1">
          <mxGeometry width="320" height="40" as="geometry" />
        </mxCell>
        <mxCell id="kD2B1rjUraq4vyGs7eOG-8" value="&lt;font style=&quot;font-size: 20px;&quot;&gt;Ray Serve Replica&lt;/font&gt;" style="whiteSpace=wrap;html=1;rounded=1;" parent="kD2B1rjUraq4vyGs7eOG-13" vertex="1">
          <mxGeometry x="7.854545454545476" y="4.445714285714287" width="186.0848484848485" height="31.10857142857143" as="geometry" />
        </mxCell>
        <mxCell id="kD2B1rjUraq4vyGs7eOG-14" value="" style="group" parent="1" vertex="1" connectable="0">
          <mxGeometry x="376" y="210" width="320" height="40" as="geometry" />
        </mxCell>
        <mxCell id="kD2B1rjUraq4vyGs7eOG-15" value="&lt;font style=&quot;font-size: 20px;&quot;&gt;Worker Pod&amp;nbsp;&amp;nbsp;&lt;/font&gt;" style="whiteSpace=wrap;html=1;rounded=1;align=right;" parent="kD2B1rjUraq4vyGs7eOG-14" vertex="1">
          <mxGeometry width="320" height="40" as="geometry" />
        </mxCell>
        <mxCell id="kD2B1rjUraq4vyGs7eOG-16" value="&lt;font style=&quot;font-size: 20px;&quot;&gt;Ray Serve Replica&lt;/font&gt;" style="whiteSpace=wrap;html=1;rounded=1;" parent="kD2B1rjUraq4vyGs7eOG-14" vertex="1">
          <mxGeometry x="7.854545454545477" y="4.445714285714287" width="186.0848484848485" height="31.10857142857143" as="geometry" />
        </mxCell>
        <mxCell id="kD2B1rjUraq4vyGs7eOG-64" value="" style="shape=table;startSize=0;container=1;collapsible=0;childLayout=tableLayout;fontSize=16;left=0;strokeWidth=1.5;" parent="1" vertex="1">
          <mxGeometry x="265" y="209" width="70" height="30" as="geometry" />
        </mxCell>
        <mxCell id="kD2B1rjUraq4vyGs7eOG-65" value="" style="shape=tableRow;horizontal=0;startSize=0;swimlaneHead=0;swimlaneBody=0;strokeColor=inherit;top=0;left=0;bottom=0;right=0;collapsible=0;dropTarget=0;fillColor=none;points=[[0,0.5],[1,0.5]];portConstraint=eastwest;fontSize=16;" parent="kD2B1rjUraq4vyGs7eOG-64" vertex="1">
          <mxGeometry width="70" height="30" as="geometry" />
        </mxCell>
        <mxCell id="kD2B1rjUraq4vyGs7eOG-66" value="" style="shape=partialRectangle;html=1;whiteSpace=wrap;connectable=0;strokeColor=inherit;overflow=hidden;fillColor=none;top=0;left=0;bottom=0;right=0;pointerEvents=1;fontSize=16;" parent="kD2B1rjUraq4vyGs7eOG-65" vertex="1">
          <mxGeometry width="18" height="30" as="geometry">
            <mxRectangle width="18" height="30" as="alternateBounds" />
          </mxGeometry>
        </mxCell>
        <mxCell id="kD2B1rjUraq4vyGs7eOG-67" value="" style="shape=partialRectangle;html=1;whiteSpace=wrap;connectable=0;strokeColor=inherit;overflow=hidden;fillColor=none;top=0;left=0;bottom=0;right=0;pointerEvents=1;fontSize=16;" parent="kD2B1rjUraq4vyGs7eOG-65" vertex="1">
          <mxGeometry x="18" width="17" height="30" as="geometry">
            <mxRectangle width="17" height="30" as="alternateBounds" />
          </mxGeometry>
        </mxCell>
        <mxCell id="kD2B1rjUraq4vyGs7eOG-81" style="shape=partialRectangle;html=1;whiteSpace=wrap;connectable=0;strokeColor=inherit;overflow=hidden;fillColor=none;top=0;left=0;bottom=0;right=0;pointerEvents=1;fontSize=16;" parent="kD2B1rjUraq4vyGs7eOG-65" vertex="1">
          <mxGeometry x="35" width="18" height="30" as="geometry">
            <mxRectangle width="18" height="30" as="alternateBounds" />
          </mxGeometry>
        </mxCell>
        <mxCell id="kD2B1rjUraq4vyGs7eOG-82" style="shape=partialRectangle;html=1;whiteSpace=wrap;connectable=0;strokeColor=inherit;overflow=hidden;fillColor=none;top=0;left=0;bottom=0;right=0;pointerEvents=1;fontSize=16;" parent="kD2B1rjUraq4vyGs7eOG-65" vertex="1">
          <mxGeometry x="53" width="17" height="30" as="geometry">
            <mxRectangle width="17" height="30" as="alternateBounds" />
          </mxGeometry>
        </mxCell>
        <mxCell id="kD2B1rjUraq4vyGs7eOG-83" value="" style="group" parent="1" vertex="1" connectable="0">
          <mxGeometry x="376" y="276" width="320" height="40" as="geometry" />
        </mxCell>
        <mxCell id="kD2B1rjUraq4vyGs7eOG-84" value="&lt;font style=&quot;font-size: 20px;&quot;&gt;Worker Pod&amp;nbsp;&amp;nbsp;&lt;/font&gt;" style="whiteSpace=wrap;html=1;rounded=1;align=right;" parent="kD2B1rjUraq4vyGs7eOG-83" vertex="1">
          <mxGeometry width="320" height="40" as="geometry" />
        </mxCell>
        <mxCell id="kD2B1rjUraq4vyGs7eOG-85" value="&lt;font style=&quot;font-size: 20px;&quot;&gt;Ray Serve Replica&lt;/font&gt;" style="whiteSpace=wrap;html=1;rounded=1;" parent="kD2B1rjUraq4vyGs7eOG-83" vertex="1">
          <mxGeometry x="7.854545454545477" y="4.445714285714287" width="186.0848484848485" height="31.10857142857143" as="geometry" />
        </mxCell>
        <mxCell id="kD2B1rjUraq4vyGs7eOG-110" value="" style="endArrow=classic;html=1;rounded=0;exitX=1;exitY=0.5;exitDx=0;exitDy=0;entryX=0;entryY=0.5;entryDx=0;entryDy=0;" parent="1" source="kD2B1rjUraq4vyGs7eOG-65" target="kD2B1rjUraq4vyGs7eOG-8" edge="1">
          <mxGeometry width="50" height="50" relative="1" as="geometry">
            <mxPoint x="540" y="295" as="sourcePoint" />
            <mxPoint x="590" y="245" as="targetPoint" />
          </mxGeometry>
        </mxCell>
        <mxCell id="kD2B1rjUraq4vyGs7eOG-111" value="" style="endArrow=classic;html=1;rounded=0;exitX=1;exitY=0.5;exitDx=0;exitDy=0;entryX=0;entryY=0.5;entryDx=0;entryDy=0;" parent="1" source="kD2B1rjUraq4vyGs7eOG-64" target="kD2B1rjUraq4vyGs7eOG-16" edge="1">
          <mxGeometry width="50" height="50" relative="1" as="geometry">
            <mxPoint x="370" y="245" as="sourcePoint" />
            <mxPoint x="438" y="180" as="targetPoint" />
          </mxGeometry>
        </mxCell>
        <mxCell id="kD2B1rjUraq4vyGs7eOG-112" value="" style="endArrow=classic;html=1;rounded=0;exitX=1;exitY=0.5;exitDx=0;exitDy=0;entryX=0;entryY=0.5;entryDx=0;entryDy=0;" parent="1" source="kD2B1rjUraq4vyGs7eOG-65" target="kD2B1rjUraq4vyGs7eOG-85" edge="1">
          <mxGeometry width="50" height="50" relative="1" as="geometry">
            <mxPoint x="370" y="245" as="sourcePoint" />
            <mxPoint x="438" y="240" as="targetPoint" />
          </mxGeometry>
        </mxCell>
        <mxCell id="kD2B1rjUraq4vyGs7eOG-114" value="&lt;font style=&quot;font-size: 18px;&quot;&gt;Faro Autoscaler&lt;br&gt;&lt;br&gt;&lt;font style=&quot;font-size: 18px;&quot; color=&quot;#009900&quot;&gt;â‘¡&lt;i&gt; Make autoscaling&lt;/i&gt;&lt;br&gt;&lt;i&gt;decisions&lt;/i&gt;&lt;/font&gt;&lt;br&gt;&lt;br&gt;&lt;br&gt;&lt;br&gt;&lt;br&gt;&lt;br&gt;&lt;br&gt;&lt;br&gt;&lt;br&gt;&lt;br&gt;&lt;br&gt;&lt;br&gt;&lt;br&gt;&lt;br&gt;&lt;br&gt;&lt;br&gt;&lt;/font&gt;" style="rounded=1;whiteSpace=wrap;html=1;arcSize=5;fillColor=#f5f5f5;fontColor=#333333;strokeColor=#666666;" parent="1" vertex="1">
          <mxGeometry x="760" y="136" width="190" height="447" as="geometry" />
        </mxCell>
        <mxCell id="kD2B1rjUraq4vyGs7eOG-115" value="&lt;font style=&quot;font-size: 20px;&quot;&gt;Metrics Collector&lt;/font&gt;" style="whiteSpace=wrap;html=1;rounded=1;" parent="1" vertex="1">
          <mxGeometry x="770" y="256" width="170" height="58.333333333333336" as="geometry" />
        </mxCell>
        <mxCell id="kD2B1rjUraq4vyGs7eOG-116" value="&lt;font style=&quot;font-size: 20px;&quot;&gt;Time-series&lt;br&gt;Predictor&lt;br&gt;&lt;/font&gt;" style="whiteSpace=wrap;html=1;rounded=1;" parent="1" vertex="1">
          <mxGeometry x="770" y="366" width="110" height="100" as="geometry" />
        </mxCell>
        <mxCell id="kD2B1rjUraq4vyGs7eOG-143" value="&lt;font style=&quot;font-size: 20px;&quot;&gt;Optimizer&lt;br&gt;&lt;/font&gt;" style="whiteSpace=wrap;html=1;rounded=1;" parent="1" vertex="1">
          <mxGeometry x="770" y="516" width="170" height="57" as="geometry" />
        </mxCell>
        <mxCell id="kD2B1rjUraq4vyGs7eOG-226" value="&lt;font style=&quot;font-size: 20px;&quot;&gt;Job N (Ray Cluster N)&lt;br&gt;&lt;br&gt;&lt;br&gt;&lt;br&gt;&lt;br&gt;&lt;br&gt;&lt;/font&gt;" style="rounded=1;whiteSpace=wrap;html=1;arcSize=7;" parent="1" vertex="1">
          <mxGeometry x="160" y="437" width="560" height="155" as="geometry" />
        </mxCell>
        <mxCell id="kD2B1rjUraq4vyGs7eOG-227" value="" style="group" parent="1" vertex="1" connectable="0">
          <mxGeometry x="170" y="451" width="140" height="133.39" as="geometry" />
        </mxCell>
        <mxCell id="kD2B1rjUraq4vyGs7eOG-228" value="&lt;font style=&quot;font-size: 20px;&quot;&gt;Head Pod&lt;br&gt;&lt;br&gt;&lt;br&gt;&lt;br&gt;&lt;br&gt;&lt;/font&gt;" style="rounded=1;whiteSpace=wrap;html=1;arcSize=5;" parent="kD2B1rjUraq4vyGs7eOG-227" vertex="1">
          <mxGeometry width="140" height="133.39" as="geometry" />
        </mxCell>
        <mxCell id="kD2B1rjUraq4vyGs7eOG-229" value="&lt;font style=&quot;font-size: 20px;&quot;&gt;Router&lt;/font&gt;" style="whiteSpace=wrap;html=1;rounded=1;" parent="kD2B1rjUraq4vyGs7eOG-227" vertex="1">
          <mxGeometry x="6.37" y="41" width="125.26" height="35" as="geometry" />
        </mxCell>
        <mxCell id="kD2B1rjUraq4vyGs7eOG-230" value="&lt;font style=&quot;font-size: 20px;&quot;&gt;Controller&lt;/font&gt;" style="whiteSpace=wrap;html=1;rounded=1;" parent="kD2B1rjUraq4vyGs7eOG-227" vertex="1">
          <mxGeometry x="7.37" y="87.74" width="125.26" height="35" as="geometry" />
        </mxCell>
        <mxCell id="kD2B1rjUraq4vyGs7eOG-231" value="" style="group;strokeWidth=2;strokeColor=none;rounded=1;" parent="1" vertex="1" connectable="0">
          <mxGeometry x="385" y="484" width="320" height="40" as="geometry" />
        </mxCell>
        <mxCell id="kD2B1rjUraq4vyGs7eOG-232" value="&lt;font style=&quot;font-size: 20px;&quot;&gt;Worker Pod&amp;nbsp;&amp;nbsp;&lt;/font&gt;" style="whiteSpace=wrap;html=1;rounded=1;align=right;" parent="kD2B1rjUraq4vyGs7eOG-231" vertex="1">
          <mxGeometry width="320" height="40" as="geometry" />
        </mxCell>
        <mxCell id="kD2B1rjUraq4vyGs7eOG-233" value="&lt;font style=&quot;font-size: 20px;&quot;&gt;Ray Serve Replica&lt;/font&gt;" style="whiteSpace=wrap;html=1;rounded=1;" parent="kD2B1rjUraq4vyGs7eOG-231" vertex="1">
          <mxGeometry x="7.854545454545476" y="4.445714285714287" width="186.0848484848485" height="31.10857142857143" as="geometry" />
        </mxCell>
        <mxCell id="kD2B1rjUraq4vyGs7eOG-234" value="" style="group" parent="1" vertex="1" connectable="0">
          <mxGeometry x="385" y="539" width="320" height="40" as="geometry" />
        </mxCell>
        <mxCell id="kD2B1rjUraq4vyGs7eOG-235" value="&lt;font style=&quot;font-size: 20px;&quot;&gt;Worker Pod&amp;nbsp;&amp;nbsp;&lt;/font&gt;" style="whiteSpace=wrap;html=1;rounded=1;align=right;" parent="kD2B1rjUraq4vyGs7eOG-234" vertex="1">
          <mxGeometry width="320" height="40" as="geometry" />
        </mxCell>
        <mxCell id="kD2B1rjUraq4vyGs7eOG-236" value="&lt;font style=&quot;font-size: 20px;&quot;&gt;Ray Serve Replica&lt;/font&gt;" style="whiteSpace=wrap;html=1;rounded=1;" parent="kD2B1rjUraq4vyGs7eOG-234" vertex="1">
          <mxGeometry x="7.854545454545477" y="4.445714285714287" width="186.0848484848485" height="31.10857142857143" as="geometry" />
        </mxCell>
        <mxCell id="kD2B1rjUraq4vyGs7eOG-237" value="" style="shape=table;startSize=0;container=1;collapsible=0;childLayout=tableLayout;fontSize=16;left=0;strokeWidth=1.5;" parent="1" vertex="1">
          <mxGeometry x="276" y="501" width="70" height="17" as="geometry" />
        </mxCell>
        <mxCell id="kD2B1rjUraq4vyGs7eOG-238" value="" style="shape=tableRow;horizontal=0;startSize=0;swimlaneHead=0;swimlaneBody=0;strokeColor=inherit;top=0;left=0;bottom=0;right=0;collapsible=0;dropTarget=0;fillColor=none;points=[[0,0.5],[1,0.5]];portConstraint=eastwest;fontSize=16;" parent="kD2B1rjUraq4vyGs7eOG-237" vertex="1">
          <mxGeometry width="70" height="17" as="geometry" />
        </mxCell>
        <mxCell id="kD2B1rjUraq4vyGs7eOG-239" value="" style="shape=partialRectangle;html=1;whiteSpace=wrap;connectable=0;strokeColor=inherit;overflow=hidden;fillColor=none;top=0;left=0;bottom=0;right=0;pointerEvents=1;fontSize=16;" parent="kD2B1rjUraq4vyGs7eOG-238" vertex="1">
          <mxGeometry width="18" height="17" as="geometry">
            <mxRectangle width="18" height="17" as="alternateBounds" />
          </mxGeometry>
        </mxCell>
        <mxCell id="kD2B1rjUraq4vyGs7eOG-240" value="" style="shape=partialRectangle;html=1;whiteSpace=wrap;connectable=0;strokeColor=inherit;overflow=hidden;fillColor=none;top=0;left=0;bottom=0;right=0;pointerEvents=1;fontSize=16;" parent="kD2B1rjUraq4vyGs7eOG-238" vertex="1">
          <mxGeometry x="18" width="17" height="17" as="geometry">
            <mxRectangle width="17" height="17" as="alternateBounds" />
          </mxGeometry>
        </mxCell>
        <mxCell id="kD2B1rjUraq4vyGs7eOG-241" style="shape=partialRectangle;html=1;whiteSpace=wrap;connectable=0;strokeColor=inherit;overflow=hidden;fillColor=none;top=0;left=0;bottom=0;right=0;pointerEvents=1;fontSize=16;" parent="kD2B1rjUraq4vyGs7eOG-238" vertex="1">
          <mxGeometry x="35" width="18" height="17" as="geometry">
            <mxRectangle width="18" height="17" as="alternateBounds" />
          </mxGeometry>
        </mxCell>
        <mxCell id="kD2B1rjUraq4vyGs7eOG-242" style="shape=partialRectangle;html=1;whiteSpace=wrap;connectable=0;strokeColor=inherit;overflow=hidden;fillColor=none;top=0;left=0;bottom=0;right=0;pointerEvents=1;fontSize=16;" parent="kD2B1rjUraq4vyGs7eOG-238" vertex="1">
          <mxGeometry x="53" width="17" height="17" as="geometry">
            <mxRectangle width="17" height="17" as="alternateBounds" />
          </mxGeometry>
        </mxCell>
        <mxCell id="kD2B1rjUraq4vyGs7eOG-250" value="" style="endArrow=classic;html=1;rounded=0;exitX=1;exitY=0.5;exitDx=0;exitDy=0;entryX=0;entryY=0.5;entryDx=0;entryDy=0;" parent="1" source="kD2B1rjUraq4vyGs7eOG-238" target="kD2B1rjUraq4vyGs7eOG-233" edge="1">
          <mxGeometry width="50" height="50" relative="1" as="geometry">
            <mxPoint x="550" y="612" as="sourcePoint" />
            <mxPoint x="600" y="562" as="targetPoint" />
          </mxGeometry>
        </mxCell>
        <mxCell id="kD2B1rjUraq4vyGs7eOG-251" value="" style="endArrow=classic;html=1;rounded=0;exitX=1;exitY=0.5;exitDx=0;exitDy=0;entryX=0;entryY=0.5;entryDx=0;entryDy=0;" parent="1" source="kD2B1rjUraq4vyGs7eOG-237" target="kD2B1rjUraq4vyGs7eOG-236" edge="1">
          <mxGeometry width="50" height="50" relative="1" as="geometry">
            <mxPoint x="380" y="562" as="sourcePoint" />
            <mxPoint x="448" y="497" as="targetPoint" />
          </mxGeometry>
        </mxCell>
        <mxCell id="kD2B1rjUraq4vyGs7eOG-256" style="edgeStyle=orthogonalEdgeStyle;rounded=0;orthogonalLoop=1;jettySize=auto;html=1;exitX=0.5;exitY=1;exitDx=0;exitDy=0;" parent="1" source="kD2B1rjUraq4vyGs7eOG-226" target="kD2B1rjUraq4vyGs7eOG-226" edge="1">
          <mxGeometry relative="1" as="geometry" />
        </mxCell>
        <mxCell id="kD2B1rjUraq4vyGs7eOG-279" value="" style="group" parent="1" vertex="1" connectable="0">
          <mxGeometry x="529.5" y="260" width="32.5" height="7" as="geometry" />
        </mxCell>
        <mxCell id="kD2B1rjUraq4vyGs7eOG-107" value="" style="ellipse;whiteSpace=wrap;html=1;fillColor=#000000;" parent="kD2B1rjUraq4vyGs7eOG-279" vertex="1">
          <mxGeometry x="25.5" width="7" height="7" as="geometry" />
        </mxCell>
        <mxCell id="kD2B1rjUraq4vyGs7eOG-103" value="" style="ellipse;whiteSpace=wrap;html=1;fillColor=#000000;" parent="kD2B1rjUraq4vyGs7eOG-279" vertex="1">
          <mxGeometry width="7" height="7" as="geometry" />
        </mxCell>
        <mxCell id="kD2B1rjUraq4vyGs7eOG-106" value="" style="ellipse;whiteSpace=wrap;html=1;fillColor=#000000;" parent="kD2B1rjUraq4vyGs7eOG-279" vertex="1">
          <mxGeometry x="13" width="7" height="7" as="geometry" />
        </mxCell>
        <mxCell id="kD2B1rjUraq4vyGs7eOG-291" value="" style="endArrow=classic;html=1;rounded=0;exitX=0.75;exitY=1;exitDx=0;exitDy=0;edgeStyle=orthogonalEdgeStyle;dashed=1;entryX=-0.001;entryY=0.418;entryDx=0;entryDy=0;entryPerimeter=0;strokeColor=#3333FF;strokeWidth=2;" parent="1" target="kD2B1rjUraq4vyGs7eOG-115" edge="1">
          <mxGeometry width="50" height="50" relative="1" as="geometry">
            <mxPoint x="261" y="246" as="sourcePoint" />
            <mxPoint x="850" y="289" as="targetPoint" />
            <Array as="points">
              <mxPoint x="261" y="256" />
              <mxPoint x="340" y="256" />
              <mxPoint x="340" y="340" />
              <mxPoint x="730" y="340" />
              <mxPoint x="730" y="280" />
              <mxPoint x="770" y="280" />
            </Array>
          </mxGeometry>
        </mxCell>
        <mxCell id="kD2B1rjUraq4vyGs7eOG-293" value="" style="endArrow=classic;html=1;rounded=0;edgeStyle=orthogonalEdgeStyle;dashed=1;strokeColor=#3333FF;strokeWidth=2;exitX=0.75;exitY=0;exitDx=0;exitDy=0;" parent="1" source="kD2B1rjUraq4vyGs7eOG-229" edge="1">
          <mxGeometry width="50" height="50" relative="1" as="geometry">
            <mxPoint x="270" y="490" as="sourcePoint" />
            <mxPoint x="770" y="300" as="targetPoint" />
            <Array as="points">
              <mxPoint x="270" y="483" />
              <mxPoint x="340" y="483" />
              <mxPoint x="340" y="353" />
              <mxPoint x="740" y="353" />
              <mxPoint x="740" y="300" />
            </Array>
          </mxGeometry>
        </mxCell>
        <mxCell id="kD2B1rjUraq4vyGs7eOG-295" value="" style="endArrow=classic;html=1;rounded=0;exitX=0.25;exitY=1;exitDx=0;exitDy=0;entryX=0.391;entryY=0.003;entryDx=0;entryDy=0;entryPerimeter=0;dashed=1;" parent="1" edge="1">
          <mxGeometry width="50" height="50" relative="1" as="geometry">
            <mxPoint x="825.5" y="314.33333333333326" as="sourcePoint" />
            <mxPoint x="826.01" y="366.30000000000007" as="targetPoint" />
          </mxGeometry>
        </mxCell>
        <mxCell id="kD2B1rjUraq4vyGs7eOG-296" value="" style="endArrow=classic;html=1;rounded=0;exitX=0.5;exitY=1;exitDx=0;exitDy=0;entryX=0.327;entryY=-0.016;entryDx=0;entryDy=0;entryPerimeter=0;dashed=1;" parent="1" source="kD2B1rjUraq4vyGs7eOG-116" target="kD2B1rjUraq4vyGs7eOG-143" edge="1">
          <mxGeometry width="50" height="50" relative="1" as="geometry">
            <mxPoint x="835.5" y="324.33333333333326" as="sourcePoint" />
            <mxPoint x="836.01" y="376.30000000000007" as="targetPoint" />
          </mxGeometry>
        </mxCell>
        <mxCell id="kD2B1rjUraq4vyGs7eOG-302" value="&lt;font style=&quot;font-size: 18px;&quot;&gt;â‘ &amp;nbsp;&lt;i&gt;Collect metrics&lt;/i&gt;&lt;/font&gt;" style="text;html=1;strokeColor=none;fillColor=none;align=center;verticalAlign=middle;whiteSpace=wrap;rounded=0;fontColor=#3333FF;" parent="1" vertex="1">
          <mxGeometry x="460" y="348.5" width="180" height="30" as="geometry" />
        </mxCell>
        <mxCell id="kD2B1rjUraq4vyGs7eOG-303" value="&lt;font style=&quot;font-size: 20px;&quot;&gt;&amp;nbsp;Requests&lt;/font&gt;" style="html=1;shadow=0;dashed=0;align=left;verticalAlign=middle;shape=mxgraph.arrows2.arrow;dy=0.4;dx=42.23;notch=0;" parent="1" vertex="1">
          <mxGeometry x="60" y="189" width="110" height="70" as="geometry" />
        </mxCell>
        <mxCell id="kD2B1rjUraq4vyGs7eOG-304" value="&lt;font style=&quot;font-size: 20px;&quot;&gt;&amp;nbsp;Requests&lt;/font&gt;" style="html=1;shadow=0;dashed=0;align=left;verticalAlign=middle;shape=mxgraph.arrows2.arrow;dy=0.4;dx=42.23;notch=0;" parent="1" vertex="1">
          <mxGeometry x="70" y="476.5" width="110" height="70" as="geometry" />
        </mxCell>
        <mxCell id="kD2B1rjUraq4vyGs7eOG-305" value="&lt;span style=&quot;font-size: 18px;&quot;&gt;&lt;i&gt;Past load&lt;/i&gt;&lt;/span&gt;" style="text;html=1;strokeColor=none;fillColor=#f5f5f5;align=center;verticalAlign=middle;whiteSpace=wrap;rounded=0;" parent="1" vertex="1">
          <mxGeometry x="774" y="329" width="100" height="18" as="geometry" />
        </mxCell>
        <mxCell id="kD2B1rjUraq4vyGs7eOG-306" value="" style="endArrow=classic;html=1;rounded=0;exitX=0.75;exitY=1;exitDx=0;exitDy=0;entryX=0.75;entryY=0;entryDx=0;entryDy=0;dashed=1;" parent="1" edge="1">
          <mxGeometry width="50" height="50" relative="1" as="geometry">
            <mxPoint x="914.5" y="314.33333333333337" as="sourcePoint" />
            <mxPoint x="914.5" y="516" as="targetPoint" />
          </mxGeometry>
        </mxCell>
        <mxCell id="kD2B1rjUraq4vyGs7eOG-307" value="&lt;font size=&quot;1&quot; style=&quot;&quot;&gt;&lt;i style=&quot;font-size: 16px;&quot;&gt;Predicted load&lt;/i&gt;&lt;/font&gt;" style="text;html=1;strokeColor=none;fillColor=#f5f5f5;align=center;verticalAlign=middle;whiteSpace=wrap;rounded=0;" parent="1" vertex="1">
          <mxGeometry x="768" y="476" width="112" height="19" as="geometry" />
        </mxCell>
        <mxCell id="kD2B1rjUraq4vyGs7eOG-308" value="&lt;span style=&quot;font-size: 18px;&quot;&gt;&lt;i&gt;Metrics&lt;br&gt;&lt;/i&gt;&lt;/span&gt;" style="text;html=1;strokeColor=none;fillColor=#f5f5f5;align=center;verticalAlign=middle;whiteSpace=wrap;rounded=0;" parent="1" vertex="1">
          <mxGeometry x="885" y="397" width="60" height="25" as="geometry" />
        </mxCell>
        <mxCell id="kD2B1rjUraq4vyGs7eOG-310" value="" style="endArrow=classic;html=1;rounded=0;edgeStyle=orthogonalEdgeStyle;dashed=1;entryX=1;entryY=0.5;entryDx=0;entryDy=0;exitX=-0.002;exitY=0.411;exitDx=0;exitDy=0;strokeColor=#FF0000;strokeWidth=2;exitPerimeter=0;" parent="1" source="kD2B1rjUraq4vyGs7eOG-143" target="kD2B1rjUraq4vyGs7eOG-5" edge="1">
          <mxGeometry width="50" height="50" relative="1" as="geometry">
            <mxPoint x="440" y="460" as="sourcePoint" />
            <mxPoint x="831" y="302" as="targetPoint" />
            <Array as="points">
              <mxPoint x="740" y="539" />
              <mxPoint x="740" y="420" />
              <mxPoint x="320" y="420" />
              <mxPoint x="320" y="287" />
            </Array>
          </mxGeometry>
        </mxCell>
        <mxCell id="kD2B1rjUraq4vyGs7eOG-311" value="" style="endArrow=classic;html=1;rounded=0;edgeStyle=orthogonalEdgeStyle;dashed=1;entryX=0.999;entryY=0.439;entryDx=0;entryDy=0;strokeColor=#FF0000;strokeWidth=2;entryPerimeter=0;" parent="1" target="kD2B1rjUraq4vyGs7eOG-230" edge="1">
          <mxGeometry width="50" height="50" relative="1" as="geometry">
            <mxPoint x="770" y="550" as="sourcePoint" />
            <mxPoint x="271" y="317" as="targetPoint" />
            <Array as="points">
              <mxPoint x="770" y="550" />
              <mxPoint x="730" y="550" />
              <mxPoint x="730" y="430" />
              <mxPoint x="320" y="430" />
              <mxPoint x="320" y="554" />
            </Array>
          </mxGeometry>
        </mxCell>
        <mxCell id="kD2B1rjUraq4vyGs7eOG-312" value="&lt;font style=&quot;font-size: 18px;&quot;&gt;â‘¢&amp;nbsp;&lt;i&gt;Execute autoscale plans&lt;/i&gt;&lt;/font&gt;" style="text;html=1;strokeColor=none;fillColor=none;align=center;verticalAlign=middle;whiteSpace=wrap;rounded=0;fontColor=#FF0000;" parent="1" vertex="1">
          <mxGeometry x="450" y="386" width="220" height="30" as="geometry" />
        </mxCell>
        <mxCell id="kD2B1rjUraq4vyGs7eOG-317" value="" style="group" parent="1" vertex="1" connectable="0">
          <mxGeometry x="231.25" y="348.5" width="13" height="56" as="geometry" />
        </mxCell>
        <mxCell id="kD2B1rjUraq4vyGs7eOG-299" value="" style="ellipse;whiteSpace=wrap;html=1;fillColor=#000000;" parent="kD2B1rjUraq4vyGs7eOG-317" vertex="1">
          <mxGeometry width="13" height="13" as="geometry" />
        </mxCell>
        <mxCell id="kD2B1rjUraq4vyGs7eOG-315" value="" style="ellipse;whiteSpace=wrap;html=1;fillColor=#000000;" parent="kD2B1rjUraq4vyGs7eOG-317" vertex="1">
          <mxGeometry y="21.5" width="13" height="13" as="geometry" />
        </mxCell>
        <mxCell id="kD2B1rjUraq4vyGs7eOG-316" value="" style="ellipse;whiteSpace=wrap;html=1;fillColor=#000000;" parent="kD2B1rjUraq4vyGs7eOG-317" vertex="1">
          <mxGeometry y="43" width="13" height="13" as="geometry" />
        </mxCell>
      </root>
    </mxGraphModel>
  </diagram>
</mxfile>
